<?xml version="1.0" encoding="utf-8"?>
<!-- Generator: Adobe Illustrator 27.0.0, SVG Export Plug-In . SVG Version: 6.00 Build 0)  -->
<svg version="1.1" id="Vrstva_1" xmlns="http://www.w3.org/2000/svg" xmlns:xlink="http://www.w3.org/1999/xlink" x="0px" y="0px"
	 viewBox="0 0 28 28" style="enable-background:new 0 0 28 28;" xml:space="preserve">
<path d="M23.3,14V8.2h2.3v7h-2.3 M23.3,19.8h2.3v-2.3h-2.3 M11.7,15.2c3.1,0,9.3,1.6,9.3,4.7v3.5H2.3v-3.5
	C2.3,16.7,8.6,15.2,11.7,15.2z M11.7,4.7c1.2,0,2.4,0.5,3.3,1.4c0.9,0.9,1.4,2.1,1.4,3.3c0,1.2-0.5,2.4-1.4,3.3
	c-0.9,0.9-2.1,1.4-3.3,1.4c-1.2,0-2.4-0.5-3.3-1.4C7.5,11.8,7,10.6,7,9.3C7,8.1,7.5,6.9,8.4,6C9.2,5.2,10.4,4.7,11.7,4.7z
	 M11.7,17.4c-3.5,0-7.1,1.7-7.1,2.5v1.3h14.2v-1.3C18.8,19.1,15.1,17.4,11.7,17.4z M11.7,6.9c-0.6,0-1.3,0.3-1.7,0.7
	C9.5,8.1,9.2,8.7,9.2,9.3s0.3,1.3,0.7,1.7c0.5,0.5,1.1,0.7,1.7,0.7c0.6,0,1.3-0.3,1.7-0.7c0.5-0.5,0.7-1.1,0.7-1.7s-0.3-1.3-0.7-1.7
	C12.9,7.1,12.3,6.9,11.7,6.9z"/>
</svg>
